{
	"asset":{
		"generator":"Khronos glTF Blender I/O v4.0.44",
		"version":"2.0"
	},
	"extensionsUsed":[
		"KHR_materials_transmission",
		"KHR_materials_ior"
	],
	"scene":0,
	"scenes":[
		{
			"name":"Scene",
			"nodes":[
				0,
				1,
				2,
				3,
				4,
				5,
				6,
				7,
				8,
				9,
				10
			]
		}
	],
	"nodes":[
		{
			"mesh":0,
			"name":"Circle",
			"rotation":[
				0.7071068286895752,
				0,
				0,
				0.7071068286895752
			],
			"translation":[
				-5.38606595993042,
				1.3730233907699585,
				-6.00087833404541
			]
		},
		{
			"mesh":1,
			"name":"Curve",
			"rotation":[
				-0.5231539011001587,
				-0.6042430996894836,
				-0.3386864960193634,
				0.4964793622493744
			],
			"scale":[
				52.15016555786133,
				29.543424606323242,
				52.150177001953125
			],
			"translation":[
				-5.609904766082764,
				1.0062382221221924,
				-5.9295220375061035
			]
		},
		{
			"mesh":2,
			"name":"Curve.001",
			"rotation":[
				0.4474165141582489,
				-0.5816132426261902,
				0.37525564432144165,
				0.5663284659385681
			],
			"scale":[
				65.2762222290039,
				65.27622985839844,
				65.2762222290039
			],
			"translation":[
				-5.689091205596924,
				1.009930968284607,
				-5.698859691619873
			]
		},
		{
			"mesh":3,
			"name":"Curve.002",
			"rotation":[
				-0.10275879502296448,
				-0.3715807795524597,
				-0.4819030165672302,
				0.7868531346321106
			],
			"scale":[
				74.79119110107422,
				74.79119110107422,
				74.79119110107422
			],
			"translation":[
				-5.914241790771484,
				1.1307226419448853,
				-5.291359901428223
			]
		},
		{
			"mesh":4,
			"name":"Curve.003",
			"rotation":[
				0.3001307547092438,
				0.9502189755439758,
				0.08369085192680359,
				0.0011550424387678504
			],
			"scale":[
				51.85678482055664,
				51.85678482055664,
				51.85678482055664
			],
			"translation":[
				-5.247585296630859,
				1.2442657947540283,
				-6.965789318084717
			]
		},
		{
			"mesh":5,
			"name":"Curve.004",
			"rotation":[
				0.6820932626724243,
				-0.034288398921489716,
				0.21524189412593842,
				0.6980286836624146
			],
			"scale":[
				35.08515167236328,
				24.624683380126953,
				24.624685287475586
			],
			"translation":[
				-4.8089447021484375,
				1.560583472251892,
				-6.1558613777160645
			]
		},
		{
			"mesh":6,
			"name":"Curve.005",
			"rotation":[
				0.5611924529075623,
				0.43018972873687744,
				-0.4301895201206207,
				0.5611923336982727
			],
			"scale":[
				67.63455200195312,
				50.000003814697266,
				67.63455200195312
			],
			"translation":[
				-4.8164381980896,
				1.266121506690979,
				-5.440883636474609
			]
		},
		{
			"mesh":7,
			"name":"Curve.006",
			"rotation":[
				-0.5609396696090698,
				-0.4305191934108734,
				-0.560939610004425,
				0.43051913380622864
			],
			"scale":[
				68.30001831054688,
				68.30001831054688,
				68.30001831054688
			],
			"translation":[
				-5.370365619659424,
				1.225521206855774,
				-6.185697555541992
			]
		},
		{
			"mesh":8,
			"name":"Curve.007",
			"rotation":[
				0.5945161581039429,
				0.38281938433647156,
				-0.5945160388946533,
				0.38281935453414917
			],
			"scale":[
				74.10844421386719,
				49.2957763671875,
				74.10844421386719
			],
			"translation":[
				-5.074923992156982,
				1.2878451347351074,
				-6.4852776527404785
			]
		},
		{
			"mesh":9,
			"name":"Curve.008",
			"rotation":[
				0.5000000596046448,
				0.5000000596046448,
				-0.5000000596046448,
				0.5
			],
			"scale":[
				71.8253402709961,
				71.8253402709961,
				71.8253402709961
			],
			"translation":[
				-6.010095119476318,
				1.0752283334732056,
				-6.840003967285156
			]
		},
		{
			"mesh":10,
			"name":"Curve.009",
			"rotation":[
				0.4472962021827698,
				0.5476551055908203,
				-0.44729623198509216,
				0.5476551055908203
			],
			"scale":[
				89.45386505126953,
				89.45386505126953,
				89.45386505126953
			],
			"translation":[
				-4.9251813888549805,
				1.3159072399139404,
				-6.9167399406433105
			]
		}
	],
	"materials":[
		{
			"doubleSided":true,
			"name":"Pointiness Metal",
			"pbrMetallicRoughness":{
				"baseColorFactor":[
					0.8443143367767334,
					1,
					0.8353680372238159,
					1
				],
				"metallicFactor":1,
				"roughnessFactor":0
			}
		},
		{
			"alphaMode":"BLEND",
			"doubleSided":true,
			"extensions":{
				"KHR_materials_transmission":{
					"transmissionFactor":0.9100000262260437
				},
				"KHR_materials_ior":{
					"ior":1.4500000476837158
				}
			},
			"name":"Procedural Crystal",
			"pbrMetallicRoughness":{
				"baseColorFactor":[
					0.00968924444168806,
					0.32787665724754333,
					1,
					1
				],
				"metallicFactor":0
			}
		},
		{
			"doubleSided":true,
			"name":"Material.001",
			"pbrMetallicRoughness":{
				"baseColorFactor":[
					0.16896960139274597,
					0.1743464469909668,
					0.0940375104546547,
					1
				],
				"metallicFactor":0,
				"roughnessFactor":0.5
			}
		},
		{
			"doubleSided":true,
			"name":"Material",
			"pbrMetallicRoughness":{
				"baseColorFactor":[
					0.4692225456237793,
					0.47096267342567444,
					0.03609992191195488,
					1
				],
				"metallicFactor":0,
				"roughnessFactor":0.5
			}
		},
		{
			"doubleSided":true,
			"name":"SVGMat.001",
			"pbrMetallicRoughness":{
				"baseColorFactor":[
					0.0798424631357193,
					0.5456221103668213,
					0.6351041793823242,
					1
				],
				"metallicFactor":0,
				"roughnessFactor":0.4000000059604645
			}
		},
		{
			"doubleSided":true,
			"name":"SVGMat.003",
			"pbrMetallicRoughness":{
				"baseColorFactor":[
					0,
					0,
					0,
					1
				],
				"metallicFactor":0,
				"roughnessFactor":0.4000000059604645
			}
		},
		{
			"doubleSided":true,
			"name":"SVGMat",
			"pbrMetallicRoughness":{
				"baseColorFactor":[
					0.012236693874001503,
					0.06647580862045288,
					0.2888951301574707,
					1
				],
				"metallicFactor":0,
				"roughnessFactor":0.4000000059604645
			}
		},
		{
			"doubleSided":true,
			"name":"SVGMat.005",
			"pbrMetallicRoughness":{
				"baseColorFactor":[
					0.5313987135887146,
					0.20411644876003265,
					0.0346524752676487,
					1
				],
				"metallicFactor":0,
				"roughnessFactor":0.4000000059604645
			}
		},
		{
			"doubleSided":true,
			"name":"SVGMat.006",
			"pbrMetallicRoughness":{
				"baseColorFactor":[
					0.1741141974925995,
					0.00752558559179306,
					0.008189132437109947,
					1
				],
				"metallicFactor":0,
				"roughnessFactor":0.4000000059604645
			}
		},
		{
			"doubleSided":true,
			"name":"SVGMat.002",
			"pbrMetallicRoughness":{
				"baseColorFactor":[
					0.02908344939351082,
					0.2893456816673279,
					0.04179289937019348,
					1
				],
				"metallicFactor":0,
				"roughnessFactor":0.4000000059604645
			}
		},
		{
			"doubleSided":true,
			"name":"SVGMat.007",
			"pbrMetallicRoughness":{
				"baseColorFactor":[
					0.023176560178399086,
					0.07418835163116455,
					0.38408491015434265,
					1
				],
				"metallicFactor":0,
				"roughnessFactor":0.4000000059604645
			}
		}
	],
	"meshes":[
		{
			"name":"Circle.010",
			"primitives":[
				{
					"attributes":{
						"POSITION":0,
						"NORMAL":1,
						"TEXCOORD_0":2,
						"TEXCOORD_1":3
					},
					"indices":4,
					"material":0
				}
			]
		},
		{
			"name":"Curve",
			"primitives":[
				{
					"attributes":{
						"POSITION":5,
						"NORMAL":6,
						"TEXCOORD_0":7,
						"TEXCOORD_1":8
					},
					"indices":9,
					"material":1
				}
			]
		},
		{
			"name":"Curve.001",
			"primitives":[
				{
					"attributes":{
						"POSITION":10,
						"NORMAL":11,
						"TEXCOORD_0":12,
						"TEXCOORD_1":13
					},
					"indices":14,
					"material":2
				}
			]
		},
		{
			"name":"Curve.002",
			"primitives":[
				{
					"attributes":{
						"POSITION":15,
						"NORMAL":16,
						"TEXCOORD_0":17,
						"TEXCOORD_1":18
					},
					"indices":19,
					"material":3
				}
			]
		},
		{
			"name":"Curve",
			"primitives":[
				{
					"attributes":{
						"POSITION":20,
						"NORMAL":21,
						"TEXCOORD_0":22
					},
					"indices":23,
					"material":4
				}
			]
		},
		{
			"name":"Curve.002",
			"primitives":[
				{
					"attributes":{
						"POSITION":24,
						"NORMAL":25,
						"TEXCOORD_0":26
					},
					"indices":27,
					"material":5
				}
			]
		},
		{
			"name":"Curve.003",
			"primitives":[
				{
					"attributes":{
						"POSITION":28,
						"NORMAL":29,
						"TEXCOORD_0":30
					},
					"indices":31,
					"material":6
				}
			]
		},
		{
			"name":"Curve.005",
			"primitives":[
				{
					"attributes":{
						"POSITION":32,
						"NORMAL":33,
						"TEXCOORD_0":34
					},
					"indices":35,
					"material":7
				}
			]
		},
		{
			"name":"Curve.006",
			"primitives":[
				{
					"attributes":{
						"POSITION":36,
						"NORMAL":37,
						"TEXCOORD_0":38
					},
					"indices":39,
					"material":8
				}
			]
		},
		{
			"name":"Curve.004",
			"primitives":[
				{
					"attributes":{
						"POSITION":40,
						"NORMAL":41,
						"TEXCOORD_0":42
					},
					"indices":43,
					"material":9
				}
			]
		},
		{
			"name":"Curve.007",
			"primitives":[
				{
					"attributes":{
						"POSITION":44,
						"NORMAL":45,
						"TEXCOORD_0":46
					},
					"indices":47,
					"material":10
				}
			]
		}
	],
	"accessors":[
		{
			"bufferView":0,
			"componentType":5126,
			"count":620,
			"max":[
				0.994967520236969,
				1.1160516738891602,
				1.010681390762329
			],
			"min":[
				-1.0050324201583862,
				-1.1867389678955078,
				-0.9893187880516052
			],
			"type":"VEC3"
		},
		{
			"bufferView":1,
			"componentType":5126,
			"count":620,
			"type":"VEC3"
		},
		{
			"bufferView":2,
			"componentType":5126,
			"count":620,
			"type":"VEC2"
		},
		{
			"bufferView":3,
			"componentType":5126,
			"count":620,
			"type":"VEC2"
		},
		{
			"bufferView":4,
			"componentType":5123,
			"count":2052,
			"type":"SCALAR"
		},
		{
			"bufferView":5,
			"componentType":5126,
			"count":1344,
			"max":[
				0.004066945984959602,
				0.0005000000237487257,
				0.003368303645402193
			],
			"min":[
				-0.0027066098991781473,
				-0.0005000000237487257,
				-0.0033683900255709887
			],
			"type":"VEC3"
		},
		{
			"bufferView":6,
			"componentType":5126,
			"count":1344,
			"type":"VEC3"
		},
		{
			"bufferView":7,
			"componentType":5126,
			"count":1344,
			"type":"VEC2"
		},
		{
			"bufferView":8,
			"componentType":5126,
			"count":1344,
			"type":"VEC2"
		},
		{
			"bufferView":9,
			"componentType":5123,
			"count":3972,
			"type":"SCALAR"
		},
		{
			"bufferView":10,
			"componentType":5126,
			"count":454,
			"max":[
				0.0019755957182496786,
				0.0001740000006975606,
				0.0021923126187175512
			],
			"min":[
				-0.001975596183910966,
				-0.0001740000006975606,
				-0.003451055148616433
			],
			"type":"VEC3"
		},
		{
			"bufferView":11,
			"componentType":5126,
			"count":454,
			"type":"VEC3"
		},
		{
			"bufferView":12,
			"componentType":5126,
			"count":454,
			"type":"VEC2"
		},
		{
			"bufferView":13,
			"componentType":5126,
			"count":454,
			"type":"VEC2"
		},
		{
			"bufferView":14,
			"componentType":5123,
			"count":1260,
			"type":"SCALAR"
		},
		{
			"bufferView":15,
			"componentType":5126,
			"count":1324,
			"max":[
				0.0031310170888900757,
				0.00017398000636603683,
				0.0018946223426610231
			],
			"min":[
				-0.0018939690198749304,
				-0.00017398000636603683,
				-0.0029026444535702467
			],
			"type":"VEC3"
		},
		{
			"bufferView":16,
			"componentType":5126,
			"count":1324,
			"type":"VEC3"
		},
		{
			"bufferView":17,
			"componentType":5126,
			"count":1324,
			"type":"VEC2"
		},
		{
			"bufferView":18,
			"componentType":5126,
			"count":1324,
			"type":"VEC2"
		},
		{
			"bufferView":19,
			"componentType":5123,
			"count":3864,
			"type":"SCALAR"
		},
		{
			"bufferView":20,
			"componentType":5126,
			"count":1016,
			"max":[
				0.002566954819485545,
				0.000455000001238659,
				0.0025838857982307673
			],
			"min":[
				-0.00307675264775753,
				-0.000455000001238659,
				-0.003058483125641942
			],
			"type":"VEC3"
		},
		{
			"bufferView":21,
			"componentType":5126,
			"count":1016,
			"type":"VEC3"
		},
		{
			"bufferView":22,
			"componentType":5126,
			"count":1016,
			"type":"VEC2"
		},
		{
			"bufferView":23,
			"componentType":5123,
			"count":3036,
			"type":"SCALAR"
		},
		{
			"bufferView":24,
			"componentType":5126,
			"count":1514,
			"max":[
				0.0028290250338613987,
				0.00035519999801181257,
				0.00281986640766263
			],
			"min":[
				-0.0028155348263680935,
				-0.00035519999801181257,
				-0.0028235013596713543
			],
			"type":"VEC3"
		},
		{
			"bufferView":25,
			"componentType":5126,
			"count":1514,
			"type":"VEC3"
		},
		{
			"bufferView":26,
			"componentType":5126,
			"count":1514,
			"type":"VEC2"
		},
		{
			"bufferView":27,
			"componentType":5123,
			"count":4464,
			"type":"SCALAR"
		},
		{
			"bufferView":28,
			"componentType":5126,
			"count":88,
			"max":[
				0.0022836627904325724,
				0.0003499999875202775,
				0.002402137964963913
			],
			"min":[
				-0.002155490219593048,
				-0.0003499999875202775,
				-0.002670115325599909
			],
			"type":"VEC3"
		},
		{
			"bufferView":29,
			"componentType":5126,
			"count":88,
			"type":"VEC3"
		},
		{
			"bufferView":30,
			"componentType":5126,
			"count":88,
			"type":"VEC2"
		},
		{
			"bufferView":31,
			"componentType":5123,
			"count":252,
			"type":"SCALAR"
		},
		{
			"bufferView":32,
			"componentType":5126,
			"count":1886,
			"max":[
				0.0024130402598530054,
				0.0003499999875202775,
				0.001891824183985591
			],
			"min":[
				-0.003232958959415555,
				-0.0003499999875202775,
				-0.0026944915298372507
			],
			"type":"VEC3"
		},
		{
			"bufferView":33,
			"componentType":5126,
			"count":1886,
			"type":"VEC3"
		},
		{
			"bufferView":34,
			"componentType":5126,
			"count":1886,
			"type":"VEC2"
		},
		{
			"bufferView":35,
			"componentType":5123,
			"count":5628,
			"type":"SCALAR"
		},
		{
			"bufferView":36,
			"componentType":5126,
			"count":66,
			"max":[
				0.0024630550760775805,
				0.0003549999964889139,
				0.002057367004454136
			],
			"min":[
				-0.0026170487981289625,
				-0.0003549999964889139,
				-0.002438139636069536
			],
			"type":"VEC3"
		},
		{
			"bufferView":37,
			"componentType":5126,
			"count":66,
			"type":"VEC3"
		},
		{
			"bufferView":38,
			"componentType":5126,
			"count":66,
			"type":"VEC2"
		},
		{
			"bufferView":39,
			"componentType":5123,
			"count":96,
			"type":"SCALAR"
		},
		{
			"bufferView":40,
			"componentType":5126,
			"count":1160,
			"max":[
				0.0030023022554814816,
				0.0003499999875202775,
				0.002781294984742999
			],
			"min":[
				-0.002636909019201994,
				-0.0003499999875202775,
				-0.002856700448319316
			],
			"type":"VEC3"
		},
		{
			"bufferView":41,
			"componentType":5126,
			"count":1160,
			"type":"VEC3"
		},
		{
			"bufferView":42,
			"componentType":5126,
			"count":1160,
			"type":"VEC2"
		},
		{
			"bufferView":43,
			"componentType":5123,
			"count":3480,
			"type":"SCALAR"
		},
		{
			"bufferView":44,
			"componentType":5126,
			"count":2800,
			"max":[
				0.002594009041786194,
				0.0003499999875202775,
				0.001728186383843422
			],
			"min":[
				-0.0030529010109603405,
				-0.0003499999875202775,
				-0.0018093702383339405
			],
			"type":"VEC3"
		},
		{
			"bufferView":45,
			"componentType":5126,
			"count":2800,
			"type":"VEC3"
		},
		{
			"bufferView":46,
			"componentType":5126,
			"count":2800,
			"type":"VEC2"
		},
		{
			"bufferView":47,
			"componentType":5123,
			"count":8292,
			"type":"SCALAR"
		}
	],
	"bufferViews":[
		{
			"buffer":0,
			"byteLength":7440,
			"byteOffset":0,
			"target":34962
		},
		{
			"buffer":0,
			"byteLength":7440,
			"byteOffset":7440,
			"target":34962
		},
		{
			"buffer":0,
			"byteLength":4960,
			"byteOffset":14880,
			"target":34962
		},
		{
			"buffer":0,
			"byteLength":4960,
			"byteOffset":19840,
			"target":34962
		},
		{
			"buffer":0,
			"byteLength":4104,
			"byteOffset":24800,
			"target":34963
		},
		{
			"buffer":0,
			"byteLength":16128,
			"byteOffset":28904,
			"target":34962
		},
		{
			"buffer":0,
			"byteLength":16128,
			"byteOffset":45032,
			"target":34962
		},
		{
			"buffer":0,
			"byteLength":10752,
			"byteOffset":61160,
			"target":34962
		},
		{
			"buffer":0,
			"byteLength":10752,
			"byteOffset":71912,
			"target":34962
		},
		{
			"buffer":0,
			"byteLength":7944,
			"byteOffset":82664,
			"target":34963
		},
		{
			"buffer":0,
			"byteLength":5448,
			"byteOffset":90608,
			"target":34962
		},
		{
			"buffer":0,
			"byteLength":5448,
			"byteOffset":96056,
			"target":34962
		},
		{
			"buffer":0,
			"byteLength":3632,
			"byteOffset":101504,
			"target":34962
		},
		{
			"buffer":0,
			"byteLength":3632,
			"byteOffset":105136,
			"target":34962
		},
		{
			"buffer":0,
			"byteLength":2520,
			"byteOffset":108768,
			"target":34963
		},
		{
			"buffer":0,
			"byteLength":15888,
			"byteOffset":111288,
			"target":34962
		},
		{
			"buffer":0,
			"byteLength":15888,
			"byteOffset":127176,
			"target":34962
		},
		{
			"buffer":0,
			"byteLength":10592,
			"byteOffset":143064,
			"target":34962
		},
		{
			"buffer":0,
			"byteLength":10592,
			"byteOffset":153656,
			"target":34962
		},
		{
			"buffer":0,
			"byteLength":7728,
			"byteOffset":164248,
			"target":34963
		},
		{
			"buffer":0,
			"byteLength":12192,
			"byteOffset":171976,
			"target":34962
		},
		{
			"buffer":0,
			"byteLength":12192,
			"byteOffset":184168,
			"target":34962
		},
		{
			"buffer":0,
			"byteLength":8128,
			"byteOffset":196360,
			"target":34962
		},
		{
			"buffer":0,
			"byteLength":6072,
			"byteOffset":204488,
			"target":34963
		},
		{
			"buffer":0,
			"byteLength":18168,
			"byteOffset":210560,
			"target":34962
		},
		{
			"buffer":0,
			"byteLength":18168,
			"byteOffset":228728,
			"target":34962
		},
		{
			"buffer":0,
			"byteLength":12112,
			"byteOffset":246896,
			"target":34962
		},
		{
			"buffer":0,
			"byteLength":8928,
			"byteOffset":259008,
			"target":34963
		},
		{
			"buffer":0,
			"byteLength":1056,
			"byteOffset":267936,
			"target":34962
		},
		{
			"buffer":0,
			"byteLength":1056,
			"byteOffset":268992,
			"target":34962
		},
		{
			"buffer":0,
			"byteLength":704,
			"byteOffset":270048,
			"target":34962
		},
		{
			"buffer":0,
			"byteLength":504,
			"byteOffset":270752,
			"target":34963
		},
		{
			"buffer":0,
			"byteLength":22632,
			"byteOffset":271256,
			"target":34962
		},
		{
			"buffer":0,
			"byteLength":22632,
			"byteOffset":293888,
			"target":34962
		},
		{
			"buffer":0,
			"byteLength":15088,
			"byteOffset":316520,
			"target":34962
		},
		{
			"buffer":0,
			"byteLength":11256,
			"byteOffset":331608,
			"target":34963
		},
		{
			"buffer":0,
			"byteLength":792,
			"byteOffset":342864,
			"target":34962
		},
		{
			"buffer":0,
			"byteLength":792,
			"byteOffset":343656,
			"target":34962
		},
		{
			"buffer":0,
			"byteLength":528,
			"byteOffset":344448,
			"target":34962
		},
		{
			"buffer":0,
			"byteLength":192,
			"byteOffset":344976,
			"target":34963
		},
		{
			"buffer":0,
			"byteLength":13920,
			"byteOffset":345168,
			"target":34962
		},
		{
			"buffer":0,
			"byteLength":13920,
			"byteOffset":359088,
			"target":34962
		},
		{
			"buffer":0,
			"byteLength":9280,
			"byteOffset":373008,
			"target":34962
		},
		{
			"buffer":0,
			"byteLength":6960,
			"byteOffset":382288,
			"target":34963
		},
		{
			"buffer":0,
			"byteLength":33600,
			"byteOffset":389248,
			"target":34962
		},
		{
			"buffer":0,
			"byteLength":33600,
			"byteOffset":422848,
			"target":34962
		},
		{
			"buffer":0,
			"byteLength":22400,
			"byteOffset":456448,
			"target":34962
		},
		{
			"buffer":0,
			"byteLength":16584,
			"byteOffset":478848,
			"target":34963
		}
	],
	"buffers":[
		{
			"byteLength":495432,
			"uri":"Forme.bin"
		}
	]
}
